<?xml version="1.0" encoding="UTF-8" standalone="no"?>
<!-- Generator: Adobe Illustrator 19.0.1, SVG Export Plug-In . SVG Version: 6.00 Build 0)  -->

<svg
   version="1.1"
   id="Layer_1"
   x="0px"
   y="0px"
   width="168"
   height="45"
   viewBox="0 0 168 45.000002"
   xml:space="preserve"
   sodipodi:docname="grafarg_typelogo.svg"
   inkscape:version="1.1 (c68e22c387, 2021-05-23)"
   xmlns:inkscape="http://www.inkscape.org/namespaces/inkscape"
   xmlns:sodipodi="http://sodipodi.sourceforge.net/DTD/sodipodi-0.dtd"
   xmlns="http://www.w3.org/2000/svg"
   xmlns:svg="http://www.w3.org/2000/svg"><defs
   id="defs30" /><sodipodi:namedview
   id="namedview28"
   pagecolor="#ffffff"
   bordercolor="#666666"
   borderopacity="1.0"
   inkscape:pageshadow="2"
   inkscape:pageopacity="0.0"
   inkscape:pagecheckerboard="0"
   showgrid="false"
   inkscape:zoom="6"
   inkscape:cx="89.333333"
   inkscape:cy="9.8333333"
   inkscape:window-width="1920"
   inkscape:window-height="986"
   inkscape:window-x="-11"
   inkscape:window-y="-11"
   inkscape:window-maximized="1"
   inkscape:current-layer="Layer_1"
   units="in" />
<style
   type="text/css"
   id="style9">
	.st0{fill:#E6E7E8;}
</style>

<g
   aria-label="Grafarg"
   id="text3040"
   style="font-size:45.3543px;line-height:1.25;fill:#e6e7e8"><path
     d="M 35.026067,12.687885 Q 34.209689,9.9666272 32.576934,7.6989121 30.944179,5.431197 28.767173,3.7530879 26.544812,2.0749787 23.868908,1.1678927 21.193005,0.21545234 18.244975,0.21545234 q -3.673698,0 -6.893854,1.40598336 -3.1748009,1.4059833 -5.5785789,3.764407 -2.3584237,2.403778 -3.764407,5.6239333 -1.36062907,3.174801 -1.36062907,6.803145 0,3.628344 1.36062907,6.8485 1.4059833,3.174801 3.764407,5.578579 2.403778,2.358424 5.5785789,3.764407 3.220156,1.360629 6.893854,1.360629 2.94803,0 6.032122,-1.088503 3.129447,-1.133858 5.669288,-3.446927 2.585195,-2.358424 4.172595,-5.941414 1.632755,-3.582989 1.587401,-8.571963 H 16.385449 v 5.079682 h 13.424873 q -0.362835,1.587401 -1.269921,3.220156 -0.907086,1.5874 -2.358423,2.857321 -1.496692,1.315274 -3.492281,2.131652 -1.99559,0.816377 -4.490076,0.816377 -2.721258,0 -5.034328,-0.997795 -2.313069,-1.043148 -3.9911783,-2.766612 -1.7234635,-1.768818 -2.6759038,-4.036533 -0.907086,-2.267715 -0.907086,-4.807556 0,-2.494486 0.907086,-4.762201 0.9524403,-2.267715 2.6305495,-4.0365332 1.6781096,-1.7234634 3.9911786,-2.7666124 2.313069,-1.0431489 5.079682,-1.0431489 2.040943,0 3.809761,0.6349602 1.768818,0.6349602 3.220155,1.6781092 1.405984,1.0431489 2.494487,2.403778 1.088503,1.3152751 1.814172,2.7212581 z"
     style="font-family:YDYoonche;-inkscape-font-specification:YDYoonche"
     id="path101" /><path
     d="m 53.666624,15.182372 v -4.399367 q -0.09071,0 -0.544252,-0.09071 -0.453543,-0.136063 -1.224566,-0.181417 -0.771023,0 -1.768818,0.181417 -0.95244,0.181417 -2.040943,0.771023 -1.904881,1.043149 -2.721258,2.177007 -0.771023,1.088503 -0.771023,1.133857 v -3.49228 H 39.28931 V 35.09291 h 5.306454 V 21.441265 q 0,-0.362834 0.181417,-1.043149 0.181417,-0.680314 0.63496,-1.496691 0.408189,-0.771024 1.133858,-1.542047 0.725668,-0.816377 1.768817,-1.451337 0.816378,-0.453543 1.723464,-0.634961 0.95244,-0.181417 1.723463,-0.226771 0.771023,0 1.269921,0.09071 0.544251,0.04535 0.63496,0.04535 z"
     style="font-family:YDYoonche;-inkscape-font-specification:YDYoonche"
     id="path103" /><path
     d="m 73.531718,35.183619 h 5.351808 V 11.417965 h -5.351808 v 3.492281 q -2.177006,-2.721258 -4.762202,-3.492281 -2.53984,-0.771023 -4.671493,-0.771023 -2.22236,0 -4.399367,0.997794 -2.131652,0.952441 -3.809761,2.63055 -1.723464,1.723463 -2.766613,4.036533 -0.997794,2.313069 -0.997794,4.988973 0,2.721258 1.043149,5.034327 1.043149,2.31307 2.721258,3.991179 1.723463,1.678109 3.855116,2.675904 2.131652,0.95244 4.308658,0.95244 2.177007,0.04535 4.85291,-0.907086 2.675904,-0.95244 4.626139,-3.174801 z M 57.567004,23.300792 q 0,-1.678109 0.63496,-3.129447 0.63496,-1.496692 1.723464,-2.63055 1.133857,-1.088503 2.585195,-1.723463 1.496692,-0.680314 3.220155,-0.680314 1.678109,0 3.129447,0.680314 1.496692,0.63496 2.63055,1.723463 1.088503,1.133858 1.723463,2.63055 0.680315,1.451338 0.680315,3.129447 0,1.723463 -0.680315,3.220155 -0.63496,1.451338 -1.723463,2.585195 -1.133858,1.088504 -2.63055,1.723464 -1.451338,0.63496 -3.129447,0.63496 -1.723463,0 -3.220155,-0.63496 -1.451338,-0.63496 -2.585195,-1.723464 -1.088504,-1.133857 -1.723464,-2.585195 -0.63496,-1.496692 -0.63496,-3.220155 z"
     style="font-family:YDYoonche;-inkscape-font-specification:YDYoonche"
     id="path105" /><path
     d="m 86.548319,14.9556 v 19.593059 h 5.261099 V 14.9556 h 4.807556 v -4.21795 h -4.807556 q 0,0 -0.04535,-0.31748 0,-0.362834 0.09071,-0.8617316 0.136062,-0.4988973 0.362834,-1.0885032 0.272126,-0.5896059 0.816377,-1.1338575 0.634961,-0.6349603 1.269921,-0.9070861 0.63496,-0.2721258 1.133857,-0.3628344 0.498898,-0.045354 0.816378,0 0.31748,0.045354 0.362834,0.045354 v -4.671493 q -0.09071,0 -0.816377,-0.045354 -0.725669,-0.045354 -1.768818,0.1360629 -1.043149,0.2267715 -2.313069,0.8163774 -1.269921,0.5896059 -2.494487,1.8595264 -1.088503,1.1338575 -1.632755,2.3130693 -0.544251,1.1338576 -0.816377,2.0862979 -0.226772,0.9524403 -0.226772,1.5420459 0,0.589606 0,0.589606 h -4.354013 v 4.21795 z"
     style="font-family:YDYoonche;-inkscape-font-specification:YDYoonche"
     id="path107" /><path
     d="m 118.52304,35.183619 h 5.3518 V 11.417965 h -5.3518 v 3.492281 q -2.17701,-2.721258 -4.76221,-3.492281 -2.53984,-0.771023 -4.67149,-0.771023 -2.22236,0 -4.39937,0.997794 -2.13165,0.952441 -3.80976,2.63055 -1.723461,1.723463 -2.76661,4.036533 -0.997794,2.313069 -0.997794,4.988973 0,2.721258 1.043149,5.034327 1.043148,2.31307 2.721255,3.991179 1.72347,1.678109 3.85512,2.675904 2.13165,0.95244 4.30866,0.95244 2.177,0.04535 4.85291,-0.907086 2.6759,-0.95244 4.62614,-3.174801 z M 102.55832,23.300792 q 0,-1.678109 0.63496,-3.129447 0.63496,-1.496692 1.72347,-2.63055 1.13385,-1.088503 2.58519,-1.723463 1.49669,-0.680314 3.22016,-0.680314 1.67811,0 3.12944,0.680314 1.49669,0.63496 2.63055,1.723463 1.08851,1.133858 1.72347,2.63055 0.68031,1.451338 0.68031,3.129447 0,1.723463 -0.68031,3.220155 -0.63496,1.451338 -1.72347,2.585195 -1.13386,1.088504 -2.63055,1.723464 -1.45133,0.63496 -3.12944,0.63496 -1.72347,0 -3.22016,-0.63496 -1.45134,-0.63496 -2.58519,-1.723464 -1.08851,-1.133857 -1.72347,-2.585195 -0.63496,-1.496692 -0.63496,-3.220155 z"
     style="font-family:YDYoonche;-inkscape-font-specification:YDYoonche"
     id="path109" /><path
     d="m 141.65365,15.182372 v -4.399367 q -0.0907,0 -0.54426,-0.09071 -0.45354,-0.136063 -1.22456,-0.181417 -0.77102,0 -1.76882,0.181417 -0.95244,0.181417 -2.04094,0.771023 -1.90488,1.043149 -2.72126,2.177007 -0.77102,1.088503 -0.77102,1.133857 v -3.492281 h -5.30646 V 35.09291 h 5.30646 V 21.441265 q 0,-0.362834 0.18141,-1.043149 0.18142,-0.680314 0.63496,-1.496691 0.40819,-0.771024 1.13386,-1.542047 0.72567,-0.816377 1.76882,-1.451337 0.81638,-0.453543 1.72346,-0.634961 0.95244,-0.181417 1.72347,-0.226771 0.77102,0 1.26992,0.09071 0.54425,0.04535 0.63496,0.04535 z"
     style="font-family:YDYoonche;-inkscape-font-specification:YDYoonche"
     id="path111" /><path
     d="m 162.78863,32.915904 q 0,1.5874 -0.68032,2.993384 -0.63496,1.360629 -1.72346,2.403778 -1.0885,1.043148 -2.53984,1.632754 -1.45134,0.589606 -3.03874,0.589606 -1.95023,0 -3.35622,-0.680314 -1.40598,-0.63496 -2.31307,-1.451338 -0.90708,-0.816377 -1.36063,-1.542046 -0.40819,-0.725669 -0.45354,-0.816378 h -5.48787 q 0.0454,0.181418 0.63496,1.587401 0.63496,1.451338 2.13165,3.129447 1.49669,1.632755 4.03654,2.948029 2.53984,1.360629 6.44031,1.360629 2.99338,0 5.39716,-1.133857 2.44913,-1.133858 4.12724,-2.902675 1.67811,-1.768818 2.58519,-3.855116 0.90709,-2.086298 0.90709,-3.991179 V 11.916862 h -5.30645 v 3.446927 q -2.22236,-2.675904 -4.80756,-3.401573 -2.53984,-0.771023 -4.67149,-0.771023 -2.22236,0 -4.35401,0.952441 -2.13166,0.95244 -3.80977,2.585195 -1.72346,1.678109 -2.76661,3.945824 -0.99779,2.267715 -0.99779,4.898265 0,2.675903 1.04315,4.943618 1.04314,2.267716 2.72125,3.90047 1.72347,1.67811 3.80977,2.63055 2.13165,0.907086 4.30865,0.907086 2.17701,0.04535 4.85291,-0.861732 2.72126,-0.95244 4.6715,-3.129447 z m -16.23684,-9.342986 q 0,-1.632755 0.63496,-3.084093 0.63496,-1.451338 1.76882,-2.539841 1.13385,-1.088503 2.58519,-1.723463 1.49669,-0.63496 3.22016,-0.63496 1.6781,0 3.12944,0.63496 1.49669,0.63496 2.63055,1.723463 1.08851,1.088503 1.72347,2.539841 0.68031,1.451338 0.68031,3.084093 0,1.678109 -0.68031,3.129446 -0.63496,1.451338 -1.72347,2.539841 -1.13386,1.088504 -2.63055,1.723464 -1.45134,0.589606 -3.12944,0.589606 -1.72347,0 -3.22016,-0.589606 -1.45134,-0.63496 -2.58519,-1.723464 -1.13386,-1.088503 -1.76882,-2.539841 -0.63496,-1.451337 -0.63496,-3.129446 z"
     style="font-family:YDYoonche;-inkscape-font-specification:YDYoonche"
     id="path113" /></g></svg>
