<?xml version="1.0" encoding="UTF-8" standalone="no"?>
<svg
   width="16px"
   height="16px"
   viewBox="0 0 16 16"
   version="1.1"
   id="svg353"
   sodipodi:docname="grafarg_mask_icon.svg"
   inkscape:version="1.1 (c68e22c387, 2021-05-23)"
   xmlns:inkscape="http://www.inkscape.org/namespaces/inkscape"
   xmlns:sodipodi="http://sodipodi.sourceforge.net/DTD/sodipodi-0.dtd"
   xmlns="http://www.w3.org/2000/svg"
   xmlns:svg="http://www.w3.org/2000/svg"
   xmlns:rdf="http://www.w3.org/1999/02/22-rdf-syntax-ns#"
   xmlns:cc="http://creativecommons.org/ns#"
   xmlns:dc="http://purl.org/dc/elements/1.1/">
  <sodipodi:namedview
     id="namedview355"
     pagecolor="#ffffff"
     bordercolor="#666666"
     borderopacity="1.0"
     inkscape:pageshadow="2"
     inkscape:pageopacity="0.0"
     inkscape:pagecheckerboard="0"
     showgrid="false"
     inkscape:zoom="46.75"
     inkscape:cx="6.9304813"
     inkscape:cy="8"
     inkscape:window-width="1920"
     inkscape:window-height="986"
     inkscape:window-x="-11"
     inkscape:window-y="-11"
     inkscape:window-maximized="1"
     inkscape:current-layer="svg353" />
  <!-- Generator: Sketch 46 (44423) - http://www.bohemiancoding.com/sketch -->
  <title
     id="title344">grafarg_mask_icon</title>
  <desc
     id="desc346">Created with Sketch.</desc>
  <defs
     id="defs348" />
  <metadata
     id="metadata437">
    <rdf:RDF>
      <cc:Work
         rdf:about="">
        <dc:title>grafarg_mask_icon</dc:title>
      </cc:Work>
    </rdf:RDF>
  </metadata>
  <g
     transform="matrix(0.01606816,0,0,0.01606818,-0.26877227,-0.21486361)"
     fill="#ffffff"
     id="g562">
    <path
       d="m 602.603,59.687 c 0,-25.575 -17.513,-46.315 -39.106,-46.315 h -97.781 c -21.599,0 -39.104,20.74 -39.104,46.315 l -39.113,83.372 c 0,25.571 17.51,46.312 39.113,46.312 h 175.991 c 21.603,0 39.111,-20.741 39.111,-46.312 z m 298.622,134.08 -69.135,-69.143 c -15.274,-15.271 -42.318,-12.985 -60.405,5.099 l -86.607,31.292 c -18.088,18.087 -20.369,45.135 -5.091,60.41 l 124.45,124.45 c 15.271,15.267 42.317,12.993 60.406,-5.098 l 31.292,-86.607 c 18.087,-18.085 20.365,-45.132 5.09,-60.403 z M 966.17,423.25 882.802,384.139 c -25.579,0 -46.315,17.513 -46.315,39.111 v 175.996 c 0,21.602 20.736,39.114 46.315,39.114 l 83.368,-39.114 c 25.574,0 46.315,-17.51 46.315,-39.111 v -97.77 c 10e-4,-21.602 -20.741,-39.115 -46.315,-39.115 z m -70.035,345.086 -31.292,-86.611 c -18.088,-18.092 -45.136,-20.365 -60.406,-5.099 l -124.45,124.453 c -15.277,15.274 -12.997,42.317 5.091,60.41 l 86.607,31.292 c 18.087,18.083 45.131,20.369 60.405,5.095 l 69.135,-69.144 c 15.275,-15.274 12.997,-42.313 -5.09,-60.396 z M 602.603,833.134 H 426.611 c -21.604,0 -39.113,20.74 -39.113,46.313 l 39.113,83.368 c 0,25.578 17.505,46.314 39.104,46.314 h 97.781 c 21.595,0 39.106,-20.736 39.106,-46.314 l 39.111,-83.368 c 0.001,-25.573 -17.509,-46.313 -39.11,-46.313 z M 349.223,801.079 224.777,676.626 c -15.276,-15.268 -42.319,-12.993 -60.407,5.099 l -31.294,86.611 c -18.088,18.083 -20.365,45.122 -5.095,60.397 l 69.141,69.143 c 15.272,15.274 42.313,12.988 60.403,-5.095 l 86.607,-31.292 c 18.088,-18.093 20.368,-45.135 5.091,-60.41 z M 146.408,384.139 63.042,423.25 c -25.583,0 -46.315,17.513 -46.315,39.115 v 97.77 c 0,21.603 20.732,39.111 46.315,39.111 l 83.366,39.114 c 25.579,0 46.315,-17.514 46.315,-39.114 V 423.25 c 10e-4,-21.598 -20.736,-39.111 -46.315,-39.111 z M 344.133,161.015 257.526,129.723 c -18.089,-18.083 -45.131,-20.369 -60.403,-5.099 l -69.141,69.143 c -15.271,15.271 -12.993,42.318 5.095,60.402 l 31.294,86.607 c 18.087,18.091 45.131,20.365 60.407,5.098 l 124.446,-124.45 c 15.276,-15.275 12.996,-42.322 -5.091,-60.409 z"
       id="path453" />
    <path
       d="M 790.521,523.425 C 789.217,674.851 666.087,797.981 514.663,799.284 441.341,799.915 371.778,769.823 319.606,718.489 267.105,666.836 239.439,596.353 238.811,523.428 c -0.565,-65.825 -102.694,-65.881 -102.125,0 1.785,207.093 170.883,376.197 377.977,377.98 207.115,1.783 376.223,-173.582 377.984,-377.985 0.567,-65.879 -101.558,-65.823 -102.126,0.002 z"
       id="path455" />
    <path
       d="m 238.812,505.593 c 1.306,-151.419 124.43,-274.551 275.852,-275.855 73.323,-0.632 142.889,29.461 195.063,80.795 52.499,51.655 80.165,122.138 80.795,195.06 0.567,65.823 102.692,65.879 102.126,0 C 890.865,298.501 721.755,129.391 514.664,127.612 307.555,125.831 138.448,301.19 136.687,505.593 c -0.57,65.88 101.558,65.823 102.125,0 z"
       id="path457" />
    <path
       d="m 590.092,516.452 c -0.921,42.171 -34.168,75.409 -76.339,76.331 -42.184,0.921 -75.438,-35.545 -76.331,-76.331 -0.922,-42.191 35.548,-75.443 76.331,-76.335 42.191,-0.924 75.445,35.547 76.339,76.335 1.439,65.755 103.565,65.895 102.126,0 -2.158,-98.635 -79.829,-176.303 -178.466,-178.461 -98.62,-2.156 -176.369,83.087 -178.457,178.461 -2.155,98.619 83.086,176.37 178.457,178.457 98.619,2.158 176.38,-83.081 178.466,-178.457 1.439,-65.895 -100.687,-65.755 -102.126,0 z"
       id="path459" />
  </g>
</svg>
