<?xml version="1.0" encoding="UTF-8" standalone="no"?>
<!-- Generator: Adobe Illustrator 19.0.1, SVG Export Plug-In . SVG Version: 6.00 Build 0)  -->

<svg
   version="1.1"
   id="Layer_1"
   x="0px"
   y="0px"
   width="168px"
   height="63.6px"
   viewBox="0 0 168 63.6"
   style="enable-background:new 0 0 168 63.6;"
   xml:space="preserve"
   sodipodi:docname="grafarg_enterprise_typelogo.svg"
   inkscape:version="1.1 (c68e22c387, 2021-05-23)"
   xmlns:inkscape="http://www.inkscape.org/namespaces/inkscape"
   xmlns:sodipodi="http://sodipodi.sourceforge.net/DTD/sodipodi-0.dtd"
   xmlns="http://www.w3.org/2000/svg"
   xmlns:svg="http://www.w3.org/2000/svg"><defs
   id="defs93" /><sodipodi:namedview
   id="namedview91"
   pagecolor="#ffffff"
   bordercolor="#666666"
   borderopacity="1.0"
   inkscape:pageshadow="2"
   inkscape:pageopacity="0.0"
   inkscape:pagecheckerboard="0"
   showgrid="false"
   inkscape:zoom="10.160714"
   inkscape:cx="96.400706"
   inkscape:cy="24.702988"
   inkscape:window-width="1920"
   inkscape:window-height="986"
   inkscape:window-x="-11"
   inkscape:window-y="-11"
   inkscape:window-maximized="1"
   inkscape:current-layer="Layer_1" />
<style
   type="text/css"
   id="style52">
	.st0{fill:#E6E7E8;}
</style>

<g
   id="g88">
	<path
   class="st0"
   d="M31.7,51.9c0.4,2.4,2.3,4.1,4.5,4.1c1.7,0,3.2-1,4.1-1.9l1.1,1.3c-1.4,1.7-3.4,2.4-5.2,2.4   c-3.8,0-6.4-3.2-6.4-6.6c0-3.6,2.8-6.2,6.2-6.2c3.6,0,6.3,2.8,6.3,7H31.7z M40.5,50.5c-0.3-2.2-2.2-3.9-4.4-3.9c-2,0-4,1.4-4.4,3.9   H40.5z"
   id="path68" />
	<path
   class="st0"
   d="M55.4,50.1v7.5h-1.7v-7.5c0-1.9-1.6-3.5-3.5-3.5c-1.9,0-3.5,1.6-3.5,3.5v7.5H45V45.2h1.5v1.3   c0.9-0.9,2.3-1.5,3.7-1.5C53.1,45,55.4,47.3,55.4,50.1z"
   id="path70" />
	<path
   class="st0"
   d="M58.4,53.5V41.2h1.7v3.9h4.3v1.5h-4.3v6.8c0,1.3,1,2.3,2.3,2.3h2v1.7h-2C60.1,57.6,58.4,55.9,58.4,53.5z"
   id="path72" />
	<path
   class="st0"
   d="M67.6,51.9c0.4,2.4,2.3,4.1,4.5,4.1c1.7,0,3.2-1,4.1-1.9l1.1,1.3c-1.4,1.7-3.4,2.4-5.2,2.4   c-3.8,0-6.4-3.2-6.4-6.6c0-3.6,2.8-6.2,6.2-6.2c3.6,0,6.3,2.8,6.3,7H67.6z M76.4,50.5c-0.3-2.2-2.2-3.9-4.4-3.9c-2,0-4,1.4-4.4,3.9   H76.4z"
   id="path74" />
	<path
   class="st0"
   d="M87.4,46.8h-1.3c-1.9,0-3.4,1.2-3.4,3.1v7.6h-1.7V45.2h1.5v1.3c0.6-0.8,1.9-1.3,3.3-1.3h1.6V46.8z"
   id="path76" />
	<path
   class="st0"
   d="M91.2,55.8v6.8h-1.7V45.2H91v2.1c1.2-1.4,2.9-2.3,4.9-2.3c3.6,0,6.4,2.9,6.4,6.4c0,3.6-2.9,6.4-6.4,6.4   C94.1,57.8,92.4,57,91.2,55.8z M91.2,51.4c0,2.6,2.1,4.7,4.7,4.7c2.6,0,4.7-2.1,4.7-4.7s-2.1-4.6-4.7-4.6   C93.3,46.7,91.2,48.8,91.2,51.4z"
   id="path78" />
	<path
   class="st0"
   d="M111.5,46.8h-1.3c-1.9,0-3.4,1.2-3.4,3.1v7.6H105V45.2h1.5v1.3c0.6-0.8,1.9-1.3,3.3-1.3h1.6V46.8z"
   id="path80" />
	<path
   class="st0"
   d="M115.8,42.8c0,0.7-0.5,1.1-1.2,1.1c-0.6,0-1.1-0.5-1.1-1.1c0-0.6,0.5-1.1,1.1-1.1   C115.3,41.6,115.8,42.2,115.8,42.8z M115.5,57.6h-1.8V45.2h1.8V57.6z"
   id="path82" />
	<path
   class="st0"
   d="M125.7,46l-0.8,1.3c-0.4-0.3-1.4-0.9-2.6-0.9c-1.3,0-2.4,0.6-2.4,1.7c0,1.1,1.3,1.5,2.5,2c2,0.7,3.8,2.1,3.8,4   c0,2-1.8,3.6-4,3.6c-1.3,0-2.8-0.5-4-1.1l0.7-1.6c0.8,0.5,2,0.9,3.1,0.9c1.6,0,2.4-1,2.4-2c0-1.1-0.9-1.7-2.9-2.4   c-1.4-0.5-3.3-1.3-3.3-3.3c0-2,1.7-3.3,4-3.3C123.8,45,124.9,45.5,125.7,46z"
   id="path84" />
	<path
   class="st0"
   d="M130.1,51.9c0.4,2.4,2.3,4.1,4.5,4.1c1.7,0,3.2-1,4.1-1.9l1.1,1.3c-1.4,1.7-3.4,2.4-5.2,2.4   c-3.8,0-6.4-3.2-6.4-6.6c0-3.6,2.8-6.2,6.2-6.2c3.6,0,6.3,2.8,6.3,7H130.1z M138.8,50.5c-0.3-2.2-2.2-3.9-4.4-3.9   c-2,0-4,1.4-4.4,3.9H138.8z"
   id="path86" />
</g>
<g
   aria-label="Grafarg"
   id="text7811"
   style="font-size:45.3543px;line-height:1.25;fill:#e6e7e8"><path
     d="M 34.716458,12.905815 Q 33.900081,10.184557 32.267326,7.9168419 30.634571,5.6491268 28.457565,3.9710177 26.235204,2.2929085 23.5593,1.3858225 20.883396,0.43338218 17.935367,0.43338218 q -3.673699,0 -6.893854,1.40598332 -3.174801,1.4059834 -5.578579,3.764407 -2.3584237,2.403778 -3.764407,5.6239335 -1.36062907,3.174801 -1.36062907,6.803145 0,3.628344 1.36062907,6.8485 1.4059833,3.174801 3.764407,5.578579 2.403778,2.358423 5.578579,3.764407 3.220155,1.360629 6.893854,1.360629 2.948029,0 6.032122,-1.088503 3.129447,-1.133858 5.669288,-3.446927 2.585195,-2.358424 4.172595,-5.941414 1.632755,-3.58299 1.587401,-8.571963 H 16.075841 v 5.079682 h 13.424873 q -0.362835,1.587401 -1.269921,3.220155 -0.907086,1.587401 -2.358423,2.857321 -1.496692,1.315275 -3.492282,2.131653 -1.995589,0.816377 -4.490075,0.816377 -2.721258,0 -5.034328,-0.997795 -2.313069,-1.043149 -3.9911784,-2.766612 -1.7234635,-1.768818 -2.6759038,-4.036533 -0.907086,-2.267715 -0.907086,-4.807556 0,-2.494486 0.907086,-4.762202 0.9524403,-2.267715 2.6305495,-4.0365323 1.6781087,-1.7234635 3.9911787,-2.7666124 2.313069,-1.043149 5.079682,-1.043149 2.040943,0 3.809761,0.6349603 1.768818,0.6349602 3.220155,1.6781091 1.405984,1.0431489 2.494487,2.4037783 1.088503,1.315274 1.814172,2.721258 z"
     style="font-family:YDYoonche;-inkscape-font-specification:YDYoonche"
     id="path123" /><path
     d="m 53.357016,15.400302 v -4.399368 q -0.09071,0 -0.544252,-0.09071 -0.453543,-0.136063 -1.224566,-0.181417 -0.771023,0 -1.768818,0.181417 -0.95244,0.181417 -2.040943,0.771023 -1.904881,1.043149 -2.721258,2.177006 -0.771024,1.088504 -0.771024,1.133858 V 11.499832 H 38.979702 V 35.31084 h 5.306453 V 21.659195 q 0,-0.362834 0.181418,-1.043149 0.181417,-0.680314 0.63496,-1.496692 0.408189,-0.771023 1.133857,-1.542046 0.725669,-0.816377 1.768818,-1.451338 0.816378,-0.453543 1.723464,-0.63496 0.95244,-0.181417 1.723463,-0.226771 0.771023,0 1.269921,0.09071 0.544251,0.04536 0.63496,0.04536 z"
     style="font-family:YDYoonche;-inkscape-font-specification:YDYoonche"
     id="path125" /><path
     d="m 73.22211,35.401549 h 5.351808 V 11.635895 H 73.22211 v 3.492281 q -2.177006,-2.721258 -4.762202,-3.492281 -2.53984,-0.771023 -4.671493,-0.771023 -2.22236,0 -4.399367,0.997794 -2.131652,0.95244 -3.809761,2.63055 -1.723464,1.723463 -2.766613,4.036532 -0.997794,2.31307 -0.997794,4.988974 0,2.721258 1.043149,5.034327 1.043149,2.313069 2.721258,3.991179 1.723463,1.678109 3.855115,2.675903 2.131653,0.952441 4.308659,0.952441 2.177007,0.04535 4.85291,-0.907086 2.675904,-0.952441 4.626139,-3.174801 z M 57.257396,23.518722 q 0,-1.67811 0.63496,-3.129447 0.63496,-1.496692 1.723464,-2.63055 1.133857,-1.088503 2.585195,-1.723463 1.496692,-0.680315 3.220155,-0.680315 1.678109,0 3.129447,0.680315 1.496692,0.63496 2.630549,1.723463 1.088504,1.133858 1.723464,2.63055 0.680314,1.451337 0.680314,3.129447 0,1.723463 -0.680314,3.220155 -0.63496,1.451338 -1.723464,2.585195 -1.133857,1.088503 -2.630549,1.723464 -1.451338,0.63496 -3.129447,0.63496 -1.723463,0 -3.220155,-0.63496 -1.451338,-0.634961 -2.585195,-1.723464 -1.088504,-1.133857 -1.723464,-2.585195 -0.63496,-1.496692 -0.63496,-3.220155 z"
     style="font-family:YDYoonche;-inkscape-font-specification:YDYoonche"
     id="path127" /><path
     d="M 86.238711,15.17353 V 34.766588 H 91.49981 V 15.17353 h 4.807556 V 10.95558 H 91.49981 q 0,0 -0.04535,-0.31748 0,-0.362834 0.09071,-0.8617317 0.136063,-0.4988973 0.362835,-1.0885033 0.272126,-0.5896059 0.816377,-1.1338575 0.634961,-0.6349602 1.269921,-0.907086 0.63496,-0.2721258 1.133857,-0.3628344 0.498898,-0.045354 0.816378,0 0.31748,0.045354 0.362834,0.045354 V 1.6579483 q -0.09071,0 -0.816377,-0.045354 -0.725669,-0.045354 -1.768818,0.1360629 -1.043149,0.2267715 -2.313069,0.8163774 -1.269921,0.589606 -2.494487,1.8595264 -1.088503,1.1338575 -1.632755,2.3130694 -0.544252,1.1338575 -0.816377,2.0862978 -0.226772,0.9524404 -0.226772,1.5420461 0,0.589606 0,0.589606 h -4.354013 v 4.21795 z"
     style="font-family:YDYoonche;-inkscape-font-specification:YDYoonche"
     id="path129" /><path
     d="m 118.21343,35.401549 h 5.35181 V 11.635895 h -5.35181 v 3.492281 q -2.17701,-2.721258 -4.7622,-3.492281 -2.53984,-0.771023 -4.6715,-0.771023 -2.22236,0 -4.39936,0.997794 -2.13166,0.95244 -3.80977,2.63055 -1.723459,1.723463 -2.766608,4.036532 -0.997794,2.31307 -0.997794,4.988974 0,2.721258 1.043148,5.034327 1.043149,2.313069 2.721254,3.991179 1.72347,1.678109 3.85512,2.675903 2.13165,0.952441 4.30866,0.952441 2.17701,0.04535 4.85291,-0.907086 2.6759,-0.952441 4.62614,-3.174801 z M 102.24871,23.518722 q 0,-1.67811 0.63496,-3.129447 0.63496,-1.496692 1.72347,-2.63055 1.13385,-1.088503 2.58519,-1.723463 1.49669,-0.680315 3.22016,-0.680315 1.67811,0 3.12944,0.680315 1.4967,0.63496 2.63055,1.723463 1.08851,1.133858 1.72347,2.63055 0.68031,1.451337 0.68031,3.129447 0,1.723463 -0.68031,3.220155 -0.63496,1.451338 -1.72347,2.585195 -1.13385,1.088503 -2.63055,1.723464 -1.45133,0.63496 -3.12944,0.63496 -1.72347,0 -3.22016,-0.63496 -1.45134,-0.634961 -2.58519,-1.723464 -1.08851,-1.133857 -1.72347,-2.585195 -0.63496,-1.496692 -0.63496,-3.220155 z"
     style="font-family:YDYoonche;-inkscape-font-specification:YDYoonche"
     id="path131" /><path
     d="m 141.34404,15.400302 v -4.399368 q -0.0907,0 -0.54425,-0.09071 -0.45355,-0.136063 -1.22457,-0.181417 -0.77102,0 -1.76882,0.181417 -0.95244,0.181417 -2.04094,0.771023 -1.90488,1.043149 -2.72126,2.177006 -0.77102,1.088504 -0.77102,1.133858 v -3.492281 h -5.30646 V 35.31084 h 5.30646 V 21.659195 q 0,-0.362834 0.18142,-1.043149 0.18141,-0.680314 0.63496,-1.496692 0.40818,-0.771023 1.13385,-1.542046 0.72567,-0.816377 1.76882,-1.451338 0.81638,-0.453543 1.72346,-0.63496 0.95244,-0.181417 1.72347,-0.226771 0.77102,0 1.26992,0.09071 0.54425,0.04536 0.63496,0.04536 z"
     style="font-family:YDYoonche;-inkscape-font-specification:YDYoonche"
     id="path133" /><path
     d="m 162.47902,33.133834 q 0,1.5874 -0.68032,2.993383 -0.63496,1.360629 -1.72346,2.403778 -1.0885,1.043149 -2.53984,1.632755 -1.45134,0.589606 -3.03874,0.589606 -1.95023,0 -3.35622,-0.680314 -1.40598,-0.634961 -2.31307,-1.451338 -0.90708,-0.816377 -1.36062,-1.542046 -0.40819,-0.725669 -0.45355,-0.816378 h -5.48787 q 0.0454,0.181418 0.63496,1.587401 0.63496,1.451338 2.13165,3.129447 1.4967,1.632755 4.03654,2.948029 2.53984,1.360629 6.44031,1.360629 2.99338,0 5.39716,-1.133857 2.44913,-1.133858 4.12724,-2.902676 1.67811,-1.768817 2.5852,-3.855115 0.90708,-2.086298 0.90708,-3.991179 V 12.134792 h -5.30645 v 3.446927 q -2.22236,-2.675904 -4.80756,-3.401573 -2.53984,-0.771023 -4.67149,-0.771023 -2.22236,0 -4.35401,0.95244 -2.13166,0.952441 -3.80976,2.585196 -1.72347,1.678109 -2.76662,3.945824 -0.99779,2.267715 -0.99779,4.898264 0,2.675904 1.04315,4.943619 1.04315,2.267715 2.72126,3.90047 1.72346,1.678109 3.80976,2.63055 2.13165,0.907086 4.30866,0.907086 2.177,0.04535 4.85291,-0.861732 2.72125,-0.95244 4.67149,-3.129447 z m -16.23684,-9.342987 q 0,-1.632754 0.63496,-3.084092 0.63496,-1.451338 1.76882,-2.539841 1.13385,-1.088503 2.58519,-1.723463 1.49669,-0.634961 3.22016,-0.634961 1.67811,0 3.12944,0.634961 1.4967,0.63496 2.63055,1.723463 1.08851,1.088503 1.72347,2.539841 0.68031,1.451338 0.68031,3.084092 0,1.67811 -0.68031,3.129447 -0.63496,1.451338 -1.72347,2.539841 -1.13385,1.088503 -2.63055,1.723464 -1.45133,0.589605 -3.12944,0.589605 -1.72347,0 -3.22016,-0.589605 -1.45134,-0.634961 -2.58519,-1.723464 -1.13386,-1.088503 -1.76882,-2.539841 -0.63496,-1.451337 -0.63496,-3.129447 z"
     style="font-family:YDYoonche;-inkscape-font-specification:YDYoonche"
     id="path135" /></g></svg>
