<?xml version="1.0" encoding="UTF-8" standalone="no"?>
<svg
   width="400"
   height="81"
   viewBox="0 0 400 81"
   version="1.1"
   id="svg843"
   sodipodi:docname="grafarg_net_logo.svg"
   inkscape:version="1.1 (c68e22c387, 2021-05-23)"
   xmlns:inkscape="http://www.inkscape.org/namespaces/inkscape"
   xmlns:sodipodi="http://sodipodi.sourceforge.net/DTD/sodipodi-0.dtd"
   xmlns="http://www.w3.org/2000/svg"
   xmlns:svg="http://www.w3.org/2000/svg">
  <defs
     id="defs847" />
  <sodipodi:namedview
     id="namedview845"
     pagecolor="#ffffff"
     bordercolor="#666666"
     borderopacity="1.0"
     inkscape:pageshadow="2"
     inkscape:pageopacity="0.0"
     inkscape:pagecheckerboard="0"
     showgrid="false"
     inkscape:zoom="2.52"
     inkscape:cx="200"
     inkscape:cy="40.47619"
     inkscape:window-width="1920"
     inkscape:window-height="986"
     inkscape:window-x="-11"
     inkscape:window-y="-11"
     inkscape:window-maximized="1"
     inkscape:current-layer="svg843" />
  <linearGradient
     id="a"
     gradientUnits="userSpaceOnUse"
     x1="312.934"
     y1="89.824"
     x2="312.934"
     y2="23.688">
    <stop
       offset="0"
       stop-color="#fff200"
       id="stop654" />
    <stop
       offset="1"
       stop-color="#f15a29"
       id="stop656" />
  </linearGradient>
  <path
     d="M315.624 60.907c0 1.43-1.27 2.793-3.09 2.581-.912-.106-1.738-.711-2.085-1.561-.788-1.934.834-3.739 2.456-3.739 1.62.001 2.719 1.215 2.719 2.719z"
     fill="url(#a)"
     id="path659" />
  <linearGradient
     id="b"
     gradientUnits="userSpaceOnUse"
     x1="333.545"
     y1="89.824"
     x2="333.545"
     y2="23.688">
    <stop
       offset="0"
       stop-color="#fff200"
       id="stop661" />
    <stop
       offset="1"
       stop-color="#f15a29"
       id="stop663" />
  </linearGradient>
  <path
     d="M345.636 46.484V63.51h-4.05V46.407c0-3.823-2.554-7.316-6.294-8.108-5.224-1.105-9.788 2.897-9.788 7.856V63.51h-4.049V34.585h3.587v3.066c2.861-2.86 7.191-4.251 11.589-3.153 5.387 1.345 9.005 6.432 9.005 11.986z"
     fill="url(#b)"
     id="path666" />
  <linearGradient
     id="c"
     gradientUnits="userSpaceOnUse"
     x1="365.193"
     y1="89.824"
     x2="365.193"
     y2="23.688">
    <stop
       offset="0"
       stop-color="#fff200"
       id="stop668" />
    <stop
       offset="1"
       stop-color="#f15a29"
       id="stop670" />
  </linearGradient>
  <path
     d="M354.924 50.379c.868 5.669 5.323 9.487 10.587 9.487 4.049 0 7.462-2.256 9.545-4.512l2.487 3.066c-3.355 3.876-7.868 5.554-12.033 5.554-8.793 0-14.868-7.347-14.868-15.446 0-8.331 6.421-14.405 14.463-14.405 8.33 0 14.636 6.595 14.636 16.256h-24.817zm20.422-3.414c-.81-5.091-5.149-8.967-10.24-8.967-4.686 0-9.314 3.297-10.182 8.967h20.422z"
     fill="url(#c)"
     id="path673" />
  <linearGradient
     id="d"
     gradientUnits="userSpaceOnUse"
     x1="392.334"
     y1="89.824"
     x2="392.334"
     y2="23.688">
    <stop
       offset="0"
       stop-color="#fff200"
       id="stop675" />
    <stop
       offset="1"
       stop-color="#f15a29"
       id="stop677" />
  </linearGradient>
  <path
     d="M398.843 63.511h-4.744c-5.38 0-9.43-3.992-9.43-9.43V25.387h4.05v9.199H400l-1.157 3.587h-10.124v15.909c0 2.959 2.421 5.38 5.38 5.38h4.744v4.049z"
     fill="url(#d)"
     id="path680" />
  <linearGradient
     id="e"
     gradientUnits="userSpaceOnUse"
     x1="38.25"
     y1="77.691"
     x2="38.25"
     y2="-.557">
    <stop
       offset="0"
       stop-color="#fff200"
       id="stop682" />
    <stop
       offset="1"
       stop-color="#f15a29"
       id="stop684" />
  </linearGradient>
  <path
     d="M36.916 72.962l-6.517 6.517a40.175 40.175 0 0 0 7.756 1.152l7.947-7.947a31.371 31.371 0 0 1-9.186.278z"
     fill="url(#e)"
     id="path687" />
  <linearGradient
     id="f"
     gradientUnits="userSpaceOnUse"
     x1="28.542"
     y1="77.691"
     x2="28.542"
     y2="-.557">
    <stop
       offset="0"
       stop-color="#fff200"
       id="stop689" />
    <stop
       offset="1"
       stop-color="#f15a29"
       id="stop691" />
  </linearGradient>
  <path
     d="M28.02 70.598l-5.832 5.833a40.003 40.003 0 0 0 6.368 2.539l6.341-6.341a32.435 32.435 0 0 1-6.877-2.031z"
     fill="url(#f)"
     id="path694" />
  <linearGradient
     id="g"
     gradientUnits="userSpaceOnUse"
     x1="20.867"
     y1="77.691"
     x2="20.867"
     y2="-.557">
    <stop
       offset="0"
       stop-color="#fff200"
       id="stop696" />
    <stop
       offset="1"
       stop-color="#f15a29"
       id="stop698" />
  </linearGradient>
  <path
     d="M20.914 66.444l-5.608 5.608a40.166 40.166 0 0 0 5.341 3.566l5.781-5.781a33.48 33.48 0 0 1-5.514-3.393z"
     fill="url(#g)"
     id="path701" />
  <linearGradient
     id="h"
     gradientUnits="userSpaceOnUse"
     x1="14.578"
     y1="77.691"
     x2="14.578"
     y2="-.557">
    <stop
       offset="0"
       stop-color="#fff200"
       id="stop703" />
    <stop
       offset="1"
       stop-color="#f15a29"
       id="stop705" />
  </linearGradient>
  <path
     d="M17.316 63.358a32.616 32.616 0 0 1-2.171-2.404l-5.574 5.574a40.37 40.37 0 0 0 4.446 4.462l5.569-5.569a33.777 33.777 0 0 1-2.27-2.063z"
     fill="url(#h)"
     id="path708" />
  <linearGradient
     id="i"
     gradientUnits="userSpaceOnUse"
     x1="25.441"
     y1="77.691"
     x2="25.441"
     y2="-.557">
    <stop
       offset="0"
       stop-color="#fff200"
       id="stop710" />
    <stop
       offset="1"
       stop-color="#f15a29"
       id="stop712" />
  </linearGradient>
  <path
     d="M23.322 23.401c-3.03 3.03-5.048 6.702-6.09 10.594L33.65 17.577c-3.97 1.084-7.448 2.944-10.328 5.824z"
     fill="url(#i)"
     id="path715" />
  <linearGradient
     id="j"
     gradientUnits="userSpaceOnUse"
     x1="44.531"
     y1="77.691"
     x2="44.531"
     y2="-.557">
    <stop
       offset="0"
       stop-color="#fff200"
       id="stop717" />
    <stop
       offset="1"
       stop-color="#f15a29"
       id="stop719" />
  </linearGradient>
  <path
     d="M58.977 28.382l-31.88 31.879a24.264 24.264 0 0 0 5.937 2.97l28.93-28.93a23.934 23.934 0 0 0-2.987-5.919z"
     fill="url(#j)"
     id="path722" />
  <linearGradient
     id="k"
     gradientUnits="userSpaceOnUse"
     x1="30.273"
     y1="77.691"
     x2="30.273"
     y2="-.557">
    <stop
       offset="0"
       stop-color="#fff200"
       id="stop724" />
    <stop
       offset="1"
       stop-color="#f15a29"
       id="stop726" />
  </linearGradient>
  <path
     d="M34.762 41.337L21.329 54.77a24.154 24.154 0 0 0 2.116 2.459 25.933 25.933 0 0 0 2.308 2.024L39.216 45.79l-4.454-4.453z"
     fill="url(#k)"
     id="path729" />
  <linearGradient
     id="l"
     gradientUnits="userSpaceOnUse"
     x1="19.821"
     y1="77.691"
     x2="19.821"
     y2="-.557">
    <stop
       offset="0"
       stop-color="#fff200"
       id="stop731" />
    <stop
       offset="1"
       stop-color="#f15a29"
       id="stop733" />
  </linearGradient>
  <path
     d="M17.193 17.272c3.561-3.561 8.031-6.117 13.111-7.609L39.642.325c-3.607.047-7.097.57-10.415 1.508L1.508 29.552A40.196 40.196 0 0 0 0 39.967l9.128-9.128a32.032 32.032 0 0 1 8.065-13.567z"
     fill="url(#l)"
     id="path736" />
  <linearGradient
     id="m"
     gradientUnits="userSpaceOnUse"
     x1="9.554"
     y1="77.691"
     x2="9.554"
     y2="-.557">
    <stop
       offset="0"
       stop-color="#fff200"
       id="stop738" />
    <stop
       offset="1"
       stop-color="#f15a29"
       id="stop740" />
  </linearGradient>
  <path
     d="M10.831 54.008l-5.866 5.866a40.231 40.231 0 0 0 3.549 5.358l5.628-5.628a32.395 32.395 0 0 1-3.311-5.596z"
     fill="url(#m)"
     id="path743" />
  <linearGradient
     id="n"
     gradientUnits="userSpaceOnUse"
     x1="5.875"
     y1="77.691"
     x2="5.875"
     y2="-.557">
    <stop
       offset="0"
       stop-color="#fff200"
       id="stop745" />
    <stop
       offset="1"
       stop-color="#f15a29"
       id="stop747" />
  </linearGradient>
  <path
     d="M8.205 45.374l-6.558 6.558a39.87 39.87 0 0 0 2.512 6.396l5.942-5.942c-.903-2.271-1.518-4.625-1.896-7.012z"
     fill="url(#n)"
     id="path750" />
  <linearGradient
     id="o"
     gradientUnits="userSpaceOnUse"
     x1="41.198"
     y1="77.691"
     x2="41.198"
     y2="-.557">
    <stop
       offset="0"
       stop-color="#fff200"
       id="stop752" />
    <stop
       offset="1"
       stop-color="#f15a29"
       id="stop754" />
  </linearGradient>
  <path
     d="M20.337 53.41l44.57-44.57a40.296 40.296 0 0 0-5.358-3.549l-42.06 42.06a23.847 23.847 0 0 0 2.848 6.059z"
     fill="url(#o)"
     id="path757" />
  <linearGradient
     id="p"
     gradientUnits="userSpaceOnUse"
     x1="4.198"
     y1="77.691"
     x2="4.198"
     y2="-.557">
    <stop
       offset="0"
       stop-color="#fff200"
       id="stop759" />
    <stop
       offset="1"
       stop-color="#f15a29"
       id="stop761" />
  </linearGradient>
  <path
     d="M8.364 33.956L.033 42.287c.117 2.675.499 5.28 1.114 7.794l6.768-6.768a33.036 33.036 0 0 1 .449-9.357z"
     fill="url(#p)"
     id="path764" />
  <linearGradient
     id="q"
     gradientUnits="userSpaceOnUse"
     x1="41.589"
     y1="77.691"
     x2="41.589"
     y2="-.557">
    <stop
       offset="0"
       stop-color="#fff200"
       id="stop766" />
    <stop
       offset="1"
       stop-color="#f15a29"
       id="stop768" />
  </linearGradient>
  <path
     d="M40.052 8.141l.02 3.015 9.684-9.684A40.155 40.155 0 0 0 41.962.358l-8.539 8.539a40.655 40.655 0 0 1 6.629-.756z"
     fill="url(#q)"
     id="path771" />
  <linearGradient
     id="r"
     gradientUnits="userSpaceOnUse"
     x1="75.867"
     y1="77.691"
     x2="75.867"
     y2="-.557">
    <stop
       offset="0"
       stop-color="#fff200"
       id="stop773" />
    <stop
       offset="1"
       stop-color="#f15a29"
       id="stop775" />
  </linearGradient>
  <path
     d="M71.428 47.357l8.877-8.877a40.175 40.175 0 0 0-1.152-7.756l-7.404 7.404a31.82 31.82 0 0 1-.321 9.229z"
     fill="url(#r)"
     id="path778" />
  <linearGradient
     id="s"
     gradientUnits="userSpaceOnUse"
     x1="74.039"
     y1="77.691"
     x2="74.039"
     y2="-.557">
    <stop
       offset="0"
       stop-color="#fff200"
       id="stop780" />
    <stop
       offset="1"
       stop-color="#f15a29"
       id="stop782" />
  </linearGradient>
  <path
     d="M71.471 36.055l7.174-7.173a39.864 39.864 0 0 0-2.539-6.369l-6.672 6.672a32.636 32.636 0 0 1 2.037 6.87z"
     fill="url(#s)"
     id="path785" />
  <linearGradient
     id="t"
     gradientUnits="userSpaceOnUse"
     x1="65.308"
     y1="77.691"
     x2="65.308"
     y2="-.557">
    <stop
       offset="0"
       stop-color="#fff200"
       id="stop787" />
    <stop
       offset="1"
       stop-color="#f15a29"
       id="stop789" />
  </linearGradient>
  <path
     d="M63.096 19.295c.425.46.8.946 1.195 1.422l6.374-6.374a40.545 40.545 0 0 0-4.462-4.446L59.95 16.15l3.146 3.145z"
     fill="url(#t)"
     id="path792" />
  <linearGradient
     id="u"
     gradientUnits="userSpaceOnUse"
     x1="70.32"
     y1="77.691"
     x2="70.32"
     y2="-.557">
    <stop
       offset="0"
       stop-color="#fff200"
       id="stop794" />
    <stop
       offset="1"
       stop-color="#f15a29"
       id="stop796" />
  </linearGradient>
  <path
     d="M68.714 27.552l6.579-6.579a40.264 40.264 0 0 0-3.566-5.341l-6.38 6.38a33.41 33.41 0 0 1 3.367 5.54z"
     fill="url(#u)"
     id="path799" />
  <linearGradient
     id="v"
     gradientUnits="userSpaceOnUse"
     x1="66.036"
     y1="77.691"
     x2="66.036"
     y2="-.557">
    <stop
       offset="0"
       stop-color="#fff200"
       id="stop801" />
    <stop
       offset="1"
       stop-color="#f15a29"
       id="stop803" />
  </linearGradient>
  <path
     d="M77.809 54.588L54.262 78.135a40.295 40.295 0 0 0 23.547-23.547z"
     fill="url(#v)"
     id="path806" />
  <linearGradient
     id="w"
     gradientUnits="userSpaceOnUse"
     x1="37.212"
     y1="77.691"
     x2="37.212"
     y2="-.557">
    <stop
       offset="0"
       stop-color="#fff200"
       id="stop808" />
    <stop
       offset="1"
       stop-color="#f15a29"
       id="stop810" />
  </linearGradient>
  <path
     d="M40.107 16.495c-1.188.086-2.33.241-3.451.429L16.648 36.932a24.133 24.133 0 0 0 .355 8.553l41-41a39.927 39.927 0 0 0-6.396-2.512l-11.52 11.519.02 3.003z"
     fill="url(#w)"
     id="path813" />
  <linearGradient
     id="x"
     gradientUnits="userSpaceOnUse"
     x1="49.038"
     y1="77.691"
     x2="49.038"
     y2="-.557">
    <stop
       offset="0"
       stop-color="#fff200"
       id="stop815" />
    <stop
       offset="1"
       stop-color="#f15a29"
       id="stop817" />
  </linearGradient>
  <path
     d="M62.504 36.114L34.855 63.763c2.759.696 5.587.878 8.363.545l19.849-19.849a23.081 23.081 0 0 0-.563-8.345z"
     fill="url(#x)"
     id="path820" />
  <linearGradient
     id="y"
     gradientUnits="userSpaceOnUse"
     x1="54.332"
     y1="77.691"
     x2="54.332"
     y2="-.557">
    <stop
       offset="0"
       stop-color="#fff200"
       id="stop822" />
    <stop
       offset="1"
       stop-color="#f15a29"
       id="stop824" />
  </linearGradient>
  <path
     d="M62.558 47.32l-16.45 16.45a22.72 22.72 0 0 0 10.493-5.989c3.036-3.037 5.002-6.654 5.957-10.461z"
     fill="url(#y)"
     id="path827" />
  <linearGradient
     id="z"
     gradientUnits="userSpaceOnUse"
     x1="60.406"
     y1="77.691"
     x2="60.406"
     y2="-.557">
    <stop
       offset="0"
       stop-color="#fff200"
       id="stop829" />
    <stop
       offset="1"
       stop-color="#f15a29"
       id="stop831" />
  </linearGradient>
  <path
     d="M80.348 40.789l-9.641 9.641a31.326 31.326 0 0 1-7.98 13.479c-3.981 3.981-8.644 6.641-13.555 8.055l-8.71 8.71a40.205 40.205 0 0 0 10.329-1.422l28.133-28.133a40.089 40.089 0 0 0 1.424-10.33z"
     fill="url(#z)"
     id="path834" />
  <linearGradient
     id="A"
     gradientUnits="userSpaceOnUse"
     x1="14.191"
     y1="77.691"
     x2="14.191"
     y2="-.557">
    <stop
       offset="0"
       stop-color="#fff200"
       id="stop836" />
    <stop
       offset="1"
       stop-color="#f15a29"
       id="stop838" />
  </linearGradient>
  <path
     d="M2.684 26.025L25.699 3.01A40.292 40.292 0 0 0 2.684 26.025z"
     fill="url(#A)"
     id="path841" />
  <g
     aria-label="Grafarg"
     id="text3329"
     style="font-size:56.6929px;line-height:1.25;fill:#e6e7e8">
    <path
       d="m 139.68539,36.732865 q -1.02048,-3.401574 -3.06142,-6.236219 -2.04095,-2.834645 -4.7622,-4.932283 -2.77796,-2.097637 -6.12284,-3.231495 -3.34488,-1.190551 -7.02992,-1.190551 -4.59212,0 -8.61732,1.75748 -3.9685,1.75748 -6.97323,4.705511 -2.94803,3.004724 -4.705507,7.02992 -1.700787,3.968503 -1.700787,8.503935 0,4.535432 1.700787,8.560628 1.757477,3.968503 4.705507,6.973227 3.00473,2.948031 6.97323,4.705511 4.0252,1.700787 8.61732,1.700787 3.68504,0 7.54016,-1.36063 3.91181,-1.417322 7.08661,-4.30866 3.2315,-2.948031 5.21575,-7.426771 2.04094,-4.478739 1.98425,-10.714958 H 116.3846 v 6.349605 h 16.7811 q -0.45354,1.984252 -1.5874,4.025196 -1.13386,1.984252 -2.94803,3.571653 -1.87087,1.644094 -4.36535,2.664566 -2.49449,1.020472 -5.6126,1.020472 -3.40157,0 -6.29291,-1.247243 -2.89134,-1.303937 -4.98898,-3.458267 -2.15433,-2.211024 -3.34488,-5.045669 -1.13386,-2.834645 -1.13386,-6.009447 0,-3.11811 1.13386,-5.952755 1.19055,-2.834645 3.28819,-5.045668 2.09764,-2.15433 4.98897,-3.458267 2.89134,-1.303937 6.34961,-1.303937 2.55118,0 4.7622,0.793701 2.21103,0.7937 4.0252,2.097637 1.75748,1.303937 3.11811,3.004724 1.36063,1.644094 2.26771,3.401574 z"
       style="font-family:YDYoonche;-inkscape-font-specification:YDYoonche"
       id="path551" />
    <path
       d="m 162.98609,39.850975 v -5.499212 q -0.11338,0 -0.68031,-0.113386 -0.56693,-0.170078 -1.53071,-0.226771 -0.96378,0 -2.21102,0.226771 -1.19055,0.226772 -2.55118,0.96378 -2.3811,1.303936 -3.40158,2.721259 -0.96378,1.36063 -0.96378,1.417322 v -4.365353 h -6.63307 v 29.763773 h 6.63307 V 47.674595 q 0,-0.453543 0.22678,-1.303937 0.22677,-0.850393 0.7937,-1.870866 0.51023,-0.963779 1.41732,-1.927558 0.90709,-1.020472 2.21102,-1.814173 1.02047,-0.566929 2.15433,-0.793701 1.19055,-0.226771 2.15433,-0.283464 0.96378,0 1.5874,0.113386 0.68032,0.05669 0.7937,0.05669 z"
       style="font-family:YDYoonche;-inkscape-font-specification:YDYoonche"
       id="path553" />
    <path
       d="m 187.81747,64.852544 h 6.68976 v -29.70708 h -6.68976 v 4.365353 q -2.72126,-3.401574 -5.95275,-4.365353 -3.17481,-0.96378 -5.83937,-0.96378 -2.77795,0 -5.49921,1.247244 -2.66457,1.190551 -4.76221,3.288188 -2.15433,2.154331 -3.45826,5.045669 -1.24725,2.891338 -1.24725,6.236219 0,3.401574 1.30394,6.292912 1.30394,2.891338 3.40157,4.988975 2.15433,2.097638 4.8189,3.344882 2.66457,1.19055 5.38583,1.19055 2.72125,0.05669 6.06614,-1.133858 3.34488,-1.190551 5.78267,-3.968503 z m -19.9559,-14.85354 q 0,-2.097637 0.7937,-3.91181 0.7937,-1.870866 2.15433,-3.288189 1.41732,-1.360629 3.2315,-2.15433 1.87086,-0.850393 4.02519,-0.850393 2.09764,0 3.91181,0.850393 1.87087,0.793701 3.28819,2.15433 1.36063,1.417323 2.15433,3.288189 0.8504,1.814173 0.8504,3.91181 0,2.15433 -0.8504,4.025196 -0.7937,1.814173 -2.15433,3.231495 -1.41732,1.36063 -3.28819,2.154331 -1.81417,0.7937 -3.91181,0.7937 -2.15433,0 -4.02519,-0.7937 -1.81418,-0.793701 -3.2315,-2.154331 -1.36063,-1.417322 -2.15433,-3.231495 -0.7937,-1.870866 -0.7937,-4.025196 z"
       style="font-family:YDYoonche;-inkscape-font-specification:YDYoonche"
       id="path555" />
    <path
       d="m 204.08823,39.56751 v 24.491334 h 6.57638 V 39.56751 h 6.00944 v -5.27244 h -6.00944 q 0,0 -0.0567,-0.39685 0,-0.453543 0.11339,-1.077165 0.17008,-0.623622 0.45354,-1.36063 0.34016,-0.737008 1.02047,-1.417322 0.7937,-0.793701 1.58741,-1.133858 0.7937,-0.340158 1.41732,-0.453544 0.62362,-0.05669 1.02047,0 0.39685,0.05669 0.45354,0.05669 v -5.839369 q -0.11338,0 -1.02047,-0.05669 -0.90709,-0.05669 -2.21102,0.170079 -1.30394,0.283465 -2.89134,1.020472 -1.5874,0.737008 -3.11811,2.324409 -1.36063,1.417323 -2.04094,2.891338 -0.68032,1.417323 -1.02048,2.607874 -0.28346,1.190551 -0.28346,1.927558 0,0.737008 0,0.737008 h -5.44252 v 5.27244 z"
       style="font-family:YDYoonche;-inkscape-font-specification:YDYoonche"
       id="path557" />
    <path
       d="m 244.05665,64.852544 h 6.68976 v -29.70708 h -6.68976 v 4.365353 q -2.72126,-3.401574 -5.95276,-4.365353 -3.1748,-0.96378 -5.83937,-0.96378 -2.77795,0 -5.49921,1.247244 -2.66457,1.190551 -4.7622,3.288188 -2.15433,2.154331 -3.45827,5.045669 -1.24724,2.891338 -1.24724,6.236219 0,3.401574 1.30393,6.292912 1.30394,2.891338 3.40158,4.988975 2.15433,2.097638 4.81889,3.344882 2.66457,1.19055 5.38583,1.19055 2.72126,0.05669 6.06614,-1.133858 3.34488,-1.190551 5.78268,-3.968503 z m -19.95591,-14.85354 q 0,-2.097637 0.7937,-3.91181 0.79371,-1.870866 2.15434,-3.288189 1.41732,-1.360629 3.23149,-2.15433 1.87087,-0.850393 4.0252,-0.850393 2.09763,0 3.91181,0.850393 1.87086,0.793701 3.28819,2.15433 1.36062,1.417323 2.15433,3.288189 0.85039,1.814173 0.85039,3.91181 0,2.15433 -0.85039,4.025196 -0.79371,1.814173 -2.15433,3.231495 -1.41733,1.36063 -3.28819,2.154331 -1.81418,0.7937 -3.91181,0.7937 -2.15433,0 -4.0252,-0.7937 -1.81417,-0.793701 -3.23149,-2.154331 -1.36063,-1.417322 -2.15434,-3.231495 -0.7937,-1.870866 -0.7937,-4.025196 z"
       style="font-family:YDYoonche;-inkscape-font-specification:YDYoonche"
       id="path559" />
    <path
       d="m 272.96991,39.850975 v -5.499212 q -0.11338,0 -0.68031,-0.113386 -0.56693,-0.170078 -1.53071,-0.226771 -0.96378,0 -2.21102,0.226771 -1.19055,0.226772 -2.55118,0.96378 -2.38111,1.303936 -3.40158,2.721259 -0.96378,1.36063 -0.96378,1.417322 v -4.365353 h -6.63307 v 29.763773 h 6.63307 V 47.674595 q 0,-0.453543 0.22677,-1.303937 0.22678,-0.850393 0.7937,-1.870866 0.51024,-0.963779 1.41733,-1.927558 0.90708,-1.020472 2.21102,-1.814173 1.02047,-0.566929 2.15433,-0.793701 1.19055,-0.226771 2.15433,-0.283464 0.96378,0 1.5874,0.113386 0.68032,0.05669 0.7937,0.05669 z"
       style="font-family:YDYoonche;-inkscape-font-specification:YDYoonche"
       id="path561" />
    <path
       d="m 299.38866,62.017899 q 0,1.984252 -0.8504,3.741732 -0.7937,1.700787 -2.15433,3.004723 -1.36063,1.303937 -3.1748,2.040945 -1.81417,0.737008 -3.79843,0.737008 -2.43779,0 -4.19527,-0.850394 -1.75748,-0.793701 -2.89134,-1.814173 -1.13386,-1.020472 -1.70078,-1.927559 -0.51024,-0.907086 -0.56693,-1.020472 h -6.85985 q 0.0567,0.226772 0.79371,1.984252 0.7937,1.814173 2.66456,3.91181 1.87087,2.040944 5.04567,3.685039 3.1748,1.700787 8.05039,1.700787 3.74173,0 6.74646,-1.417323 3.06141,-1.417322 5.15905,-3.628346 2.09764,-2.211023 3.2315,-4.818896 1.13385,-2.607874 1.13385,-4.988976 v -26.58897 h -6.63306 v 4.30866 q -2.77796,-3.344881 -6.00945,-4.251967 -3.1748,-0.96378 -5.83937,-0.96378 -2.77795,0 -5.44252,1.190551 -2.66457,1.190551 -4.7622,3.231496 -2.15433,2.097637 -3.45827,4.932282 -1.24724,2.834645 -1.24724,6.122833 0,3.344882 1.30393,6.179527 1.30394,2.834645 3.40158,4.875589 2.15433,2.097637 4.7622,3.288188 2.66457,1.133858 5.38583,1.133858 2.72126,0.05669 6.06614,-1.077165 3.40157,-1.190551 5.83937,-3.91181 z M 279.0926,50.339161 q 0,-2.040944 0.7937,-3.855117 0.7937,-1.814173 2.21102,-3.174802 1.41732,-1.36063 3.2315,-2.154331 1.87086,-0.7937 4.02519,-0.7937 2.09764,0 3.91181,0.7937 1.87087,0.793701 3.28819,2.154331 1.36063,1.360629 2.15433,3.174802 0.85039,1.814173 0.85039,3.855117 0,2.097638 -0.85039,3.911811 -0.7937,1.814172 -2.15433,3.174802 -1.41732,1.36063 -3.28819,2.15433 -1.81417,0.737008 -3.91181,0.737008 -2.15433,0 -4.02519,-0.737008 -1.81418,-0.7937 -3.2315,-2.15433 -1.41732,-1.36063 -2.21102,-3.174802 -0.7937,-1.814173 -0.7937,-3.911811 z"
       style="font-family:YDYoonche;-inkscape-font-specification:YDYoonche"
       id="path563" />
  </g>
</svg>
